<svg xmlns="http://www.w3.org/2000/svg" width="43" height="53" viewBox="0 0 43 53">
    <g fill="none" fill-rule="evenodd">
        <g>
            <path d="M17.498 20.903l-1.977 4.291c-.333.726-1.007.803-1.497.17L9.75 19.847c-.338-.437-.865-.68-1.416-.652l-6.973.335c-.797.041-1.177-.523-.844-1.249L8.563.826" transform="translate(-9 -3.5) translate(10 29.004)"/>
            <path stroke="#FEFEFE" stroke-linecap="round" stroke-width="2" d="M17.498 20.903l-1.977 4.291c-.333.726-1.007.803-1.497.17L9.75 19.847c-.338-.437-.865-.68-1.416-.652l-6.973.335c-.797.041-1.177-.523-.844-1.249L8.563.826" transform="translate(-9 -3.5) translate(10 29.004)"/>
        </g>
        <g>
            <path d="M16.892 4.726l-1.637-3.55C14.92.451 14.054.131 13.328.464L.963 6.162c-.726.334-1.046 1.2-.71 1.926l7.434 16.135c.335.728 1.008.804 1.497.173l4.274-5.521c.338-.435.867-.68 1.416-.652l6.975.338c.797.038 1.175-.524.842-1.25l-2.517-5.459" transform="translate(-9 -3.5) translate(27.46 29.974)"/>
            <path stroke="#FEFEFE" stroke-linecap="round" stroke-width="2" d="M16.892 4.726l-1.637-3.55C14.92.451 14.054.131 13.328.464L.963 6.162c-.726.334-1.046 1.2-.71 1.926l7.434 16.135c.335.728 1.008.804 1.497.173l4.274-5.521c.338-.435.867-.68 1.416-.652l6.975.338c.797.038 1.175-.524.842-1.25l-2.517-5.459" transform="translate(-9 -3.5) translate(27.46 29.974)"/>
        </g>
        <path d="M49.996 25.058c0 10.859-8.802 19.662-19.662 19.662-10.858 0-19.662-8.803-19.662-19.662 0-10.858 8.804-19.661 19.662-19.661 10.86 0 19.662 8.803 19.662 19.661" transform="translate(-9 -3.5)"/>
        <path stroke="#FEFEFE" stroke-width="2" d="M49.996 25.058c0 10.859-8.802 19.662-19.662 19.662-10.858 0-19.662-8.803-19.662-19.662 0-10.858 8.804-19.661 19.662-19.661 10.86 0 19.662 8.803 19.662 19.661z" transform="translate(-9 -3.5)"/>
        <path fill="#FF627C" stroke="#FEFEFE" stroke-width="1.94" d="M49.996 25.058c0 10.859-8.802 19.662-19.662 19.662-10.858 0-19.662-8.803-19.662-19.662 0-10.858 8.804-19.661 19.662-19.661 10.86 0 19.662 8.803 19.662 19.661z" transform="translate(-9 -3.5)"/>
        <path fill="#FFF" d="M28.383 23.67c.5-.372 1.343-.63 2.313-.63 2.797 0 4.917 1.795 4.917 4.544 0 2.733-2.168 4.737-5.29 4.722-2.068-.016-3.701-.712-4.753-2.134-.423-.567-.308-1.261.208-1.73.52-.47 1.278-.47 1.796.032.695.68 1.44 1.34 2.75 1.34 1.503 0 2.409-1.033 2.409-2.164 0-1.263-.873-2.12-2.2-2.12-1.18 0-1.68.275-2.456.76-.421.258-.86.405-1.263.405-.776 0-1.39-.632-1.308-1.472l.485-4.852c.095-.97.807-1.618 1.777-1.618h6.179c.694 0 1.164.615 1.164 1.278 0 .648-.47 1.279-1.164 1.279h-5.306l-.258 2.36z" transform="translate(-9 -3.5)"/>
    </g>
</svg>
